<svg xmlns="http://www.w3.org/2000/svg" width="40.637" height="40.637" viewBox="0 0 40.637 40.637">
  <g id="pause" transform="translate(0.5 0.5)">
    <path id="Path_3" data-name="Path 3" d="M19.818,0A19.818,19.818,0,1,0,39.637,19.818,19.841,19.841,0,0,0,19.818,0Zm0,38.316a18.5,18.5,0,1,1,18.5-18.5A18.518,18.518,0,0,1,19.818,38.316Z" fill="#314059" stroke="#313f58" stroke-width="1"/>
    <path id="Path_4" data-name="Path 4" d="M33,35.14h5.285V14H33Zm1.321-19.818h2.642v18.5H34.321Z" transform="translate(-11.2 -4.751)" fill="#314059" stroke="#313f58" stroke-width="1"/>
    <path id="Path_5" data-name="Path 5" d="M19,35.14h5.285V14H19Zm1.321-19.818h2.642v18.5H20.321Z" transform="translate(-6.448 -4.751)" fill="#314059" stroke="#313f58" stroke-width="1"/>
  </g>
</svg>
