<svg xmlns="http://www.w3.org/2000/svg" width="40.318" height="48.964" viewBox="0 0 40.318 48.964">
  <path id="reload" d="M24.157,42.474l-1.921-2.825a1.114,1.114,0,1,1,1.842-1.254l3.095,4.555a1.124,1.124,0,0,1-.048,1.413l-3.651,4.222A1.122,1.122,0,0,1,21.9,48.7a1.143,1.143,0,0,1-.111-1.587L23.887,44.7a18.216,18.216,0,0,1-2.079-.175,18.838,18.838,0,0,1-3.286-.73A20.168,20.168,0,0,1,19,5.109a1.12,1.12,0,0,1,1.381.762A1.1,1.1,0,0,1,19.6,7.252a18.168,18.168,0,0,0-7.635,4.428,17.589,17.589,0,0,0-4.587,7.508A17.937,17.937,0,0,0,19.172,41.663a19.889,19.889,0,0,0,2.936.651,17.684,17.684,0,0,0,2.049.16Zm5.809,1.381a1.117,1.117,0,0,1-1.381-.778,1.129,1.129,0,0,1,.778-1.381,17.942,17.942,0,0,0,.429-34.4,17.675,17.675,0,0,0-2.936-.651,17.879,17.879,0,0,0-2.032-.159l1.905,2.825a1.1,1.1,0,0,1-.286,1.54,1.119,1.119,0,0,1-1.555-.286L21.793,6a1.1,1.1,0,0,1,.048-1.4L25.49.38A1.123,1.123,0,0,1,27.061.269a1.109,1.109,0,0,1,.111,1.571L25.077,4.253c.7.032,1.381.079,2.079.175a22.294,22.294,0,0,1,3.286.73,20.2,20.2,0,0,1,8.127,33.714,20.394,20.394,0,0,1-8.6,4.983Z" transform="translate(-4.323 0)" fill="#314059"/>
</svg>
